<svg xmlns="http://www.w3.org/2000/svg" width="20" height="25.115" viewBox="0 0 20 25.115">
  <g id="icon" transform="translate(-180.97 -149.439)">
    <path id="Trazado_1" data-name="Trazado 1" d="M190.285,149.439h1.374a1.575,1.575,0,0,0,.211.044,9.568,9.568,0,0,1,3.905,1.191,9.853,9.853,0,0,1,4.259,4.558,9.753,9.753,0,0,1,.663,6.477,15.114,15.114,0,0,1-2.139,4.834,31.989,31.989,0,0,1-6.324,6.993c-.4.341-.808.678-1.213,1.018h-.1a1.658,1.658,0,0,0-.155-.146,31.49,31.49,0,0,1-6.283-6.082,17.6,17.6,0,0,1-2.961-5.459,10.739,10.739,0,0,1-.437-4.932,10.036,10.036,0,0,1,7.97-8.3C189.463,149.549,189.875,149.5,190.285,149.439Zm.681,5.237a4.763,4.763,0,1,0,4.768,4.744A4.758,4.758,0,0,0,190.965,154.676Z" transform="translate(0)" fill="#ff5454" fill-rule="evenodd"/>
  </g>
</svg>
